<svg width="141" height="25" viewBox="0 0 141 25" fill="none" xmlns="http://www.w3.org/2000/svg">
<g clip-path="url(#clip0)">
<path d="M24.7889 21H28.328V13.875H35.9452V21H39.4842V4.08984H35.9452V10.957H28.328V4.08984H24.7889V21ZM49.2056 21.293C54.233 21.293 57.3619 17.9297 57.3619 12.5508V12.5273C57.3619 7.16016 54.2213 3.79688 49.2056 3.79688C44.2017 3.79688 41.0494 7.14844 41.0494 12.5273V12.5508C41.0494 17.9297 44.1783 21.293 49.2056 21.293ZM49.2056 18.293C46.4283 18.293 44.6588 16.0898 44.6588 12.5508V12.5273C44.6588 8.98828 46.44 6.79688 49.2056 6.79688C51.983 6.79688 53.7525 9 53.7525 12.5273V12.5508C53.7525 16.0547 52.0181 18.293 49.2056 18.293ZM58.927 21H62.4661V14.8711H65.302L68.4544 21H72.4622L68.8997 14.3438C70.7747 13.6055 71.9583 11.7539 71.9583 9.52734V9.50391C71.9583 6.10547 69.7083 4.08984 65.9114 4.08984H58.927V21ZM62.4661 12.1875V6.85547H65.4778C67.2239 6.85547 68.3372 7.88672 68.3372 9.50391V9.52734C68.3372 11.1914 67.2825 12.1875 65.5247 12.1875H62.4661ZM73.582 21H77.1211V4.08984H73.582V21ZM78.8503 21H91.905V18.082H83.1042V18.0117L91.6706 6.38672V4.08984H79.0495V7.00781H87.4519V7.07812L78.8503 18.6914V21ZM101.146 21.293C106.173 21.293 109.302 17.9297 109.302 12.5508V12.5273C109.302 7.16016 106.162 3.79688 101.146 3.79688C96.142 3.79688 92.9897 7.14844 92.9897 12.5273V12.5508C92.9897 17.9297 96.1186 21.293 101.146 21.293ZM101.146 18.293C98.3686 18.293 96.5991 16.0898 96.5991 12.5508V12.5273C96.5991 8.98828 98.3803 6.79688 101.146 6.79688C103.923 6.79688 105.693 9 105.693 12.5273V12.5508C105.693 16.0547 103.958 18.293 101.146 18.293ZM110.867 21H114.395V9.92578H114.465L122.129 21H125.199V4.08984H121.672V15.082H121.602L113.961 4.08984H110.867V21Z" fill="#020503"/>
<circle cx="134" cy="18" r="3" fill="black"/>
<path d="M12 8L19.7942 20.75H4.20577L12 8Z" fill="#3282B8"/>
</g>
<defs>
<clipPath id="clip0">
<rect width="141" height="25" fill="white"/>
</clipPath>
</defs>
</svg>
