<svg width="35" height="35" viewBox="0 0 35 35" fill="none" xmlns="http://www.w3.org/2000/svg">
<path d="M28.9001 10.0892H6.2334C4.66859 10.0892 3.40007 11.3578 3.40007 12.9226V27.0892C3.40007 28.654 4.66859 29.9226 6.2334 29.9226H28.9001C30.4649 29.9226 31.7334 28.654 31.7334 27.0892V12.9226C31.7334 11.3578 30.4649 10.0892 28.9001 10.0892Z" stroke="#0072FF" stroke-width="2" stroke-linecap="round" stroke-linejoin="round"/>
<path d="M23.2334 29.9226V7.25594C23.2334 6.50449 22.9349 5.78382 22.4035 5.25247C21.8722 4.72112 21.1515 4.42261 20.4001 4.42261H14.7334C13.982 4.42261 13.2613 4.72112 12.7299 5.25247C12.1986 5.78382 11.9001 6.50449 11.9001 7.25594V29.9226" stroke="#0072FF" stroke-width="2" stroke-linecap="round" stroke-linejoin="round"/>
</svg>
